<svg id="visual" viewBox="0 0 960 540" width="960" height="540" xmlns="http://www.w3.org/2000/svg" xmlns:xlink="http://www.w3.org/1999/xlink" version="1.1"><path d="M0 118L22.8 116.8C45.7 115.7 91.3 113.3 137 112.7C182.7 112 228.3 113 274 114.8C319.7 116.7 365.3 119.3 411.2 120.7C457 122 503 122 548.8 120.8C594.7 119.7 640.3 117.3 686 117.5C731.7 117.7 777.3 120.3 823 120.3C868.7 120.3 914.3 117.7 937.2 116.3L960 115L960 0L937.2 0C914.3 0 868.7 0 823 0C777.3 0 731.7 0 686 0C640.3 0 594.7 0 548.8 0C503 0 457 0 411.2 0C365.3 0 319.7 0 274 0C228.3 0 182.7 0 137 0C91.3 0 45.7 0 22.8 0L0 0Z" fill="#b3b3b3"></path><path d="M0 81L22.8 79.7C45.7 78.3 91.3 75.7 137 75.8C182.7 76 228.3 79 274 79.8C319.7 80.7 365.3 79.3 411.2 78.8C457 78.3 503 78.7 548.8 80C594.7 81.3 640.3 83.7 686 82.5C731.7 81.3 777.3 76.7 823 75C868.7 73.3 914.3 74.7 937.2 75.3L960 76L960 0L937.2 0C914.3 0 868.7 0 823 0C777.3 0 731.7 0 686 0C640.3 0 594.7 0 548.8 0C503 0 457 0 411.2 0C365.3 0 319.7 0 274 0C228.3 0 182.7 0 137 0C91.3 0 45.7 0 22.8 0L0 0Z" fill="#c6c6c6"></path><path d="M0 44L22.8 43.5C45.7 43 91.3 42 137 40C182.7 38 228.3 35 274 35.8C319.7 36.7 365.3 41.3 411.2 42.2C457 43 503 40 548.8 40.2C594.7 40.3 640.3 43.7 686 45C731.7 46.3 777.3 45.7 823 43.3C868.7 41 914.3 37 937.2 35L960 33L960 0L937.2 0C914.3 0 868.7 0 823 0C777.3 0 731.7 0 686 0C640.3 0 594.7 0 548.8 0C503 0 457 0 411.2 0C365.3 0 319.7 0 274 0C228.3 0 182.7 0 137 0C91.3 0 45.7 0 22.8 0L0 0Z" fill="#dadada"></path></svg>