<svg id="visual" viewBox="0 0 320 900" width="320" height="900" xmlns="http://www.w3.org/2000/svg" xmlns:xlink="http://www.w3.org/1999/xlink" version="1.1"><path d="M0 197L7.7 195C15.3 193 30.7 189 45.8 188C61 187 76 189 91.2 192.2C106.3 195.3 121.7 199.7 137 201.8C152.3 204 167.7 204 183 202.2C198.3 200.3 213.7 196.7 228.8 196.8C244 197 259 201 274.2 200.8C289.3 200.7 304.7 196.3 312.3 194.2L320 192L320 0L312.3 0C304.7 0 289.3 0 274.2 0C259 0 244 0 228.8 0C213.7 0 198.3 0 183 0C167.7 0 152.3 0 137 0C121.7 0 106.3 0 91.2 0C76 0 61 0 45.8 0C30.7 0 15.3 0 7.7 0L0 0Z" fill="#b3b3b3"></path><path d="M0 135L7.7 133C15.3 131 30.7 127 45.8 127.5C61 128 76 133 91.2 134.2C106.3 135.3 121.7 132.7 137 131.8C152.3 131 167.7 132 183 134.3C198.3 136.7 213.7 140.3 228.8 138.2C244 136 259 128 274.2 125.2C289.3 122.3 304.7 124.7 312.3 125.8L320 127L320 0L312.3 0C304.7 0 289.3 0 274.2 0C259 0 244 0 228.8 0C213.7 0 198.3 0 183 0C167.7 0 152.3 0 137 0C121.7 0 106.3 0 91.2 0C76 0 61 0 45.8 0C30.7 0 15.3 0 7.7 0L0 0Z" fill="#c6c6c6"></path><path d="M0 75L7.7 74C15.3 73 30.7 71 45.8 67.3C61 63.7 76 58.3 91.2 59.7C106.3 61 121.7 69 137 70.5C152.3 72 167.7 67 183 67.3C198.3 67.7 213.7 73.3 228.8 75.5C244 77.7 259 76.3 274.2 72.5C289.3 68.7 304.7 62.3 312.3 59.2L320 56L320 0L312.3 0C304.7 0 289.3 0 274.2 0C259 0 244 0 228.8 0C213.7 0 198.3 0 183 0C167.7 0 152.3 0 137 0C121.7 0 106.3 0 91.2 0C76 0 61 0 45.8 0C30.7 0 15.3 0 7.7 0L0 0Z" fill="#dadada"></path></svg>