<svg width="537" height="539" viewBox="0 0 537 539" fill="none" xmlns="http://www.w3.org/2000/svg">
<path d="M272.408 439.239C270.9 443.846 264.375 443.827 262.895 439.21L226.455 325.567C225.793 323.503 223.877 322.1 221.709 322.094L102.654 321.737C97.8141 321.722 95.8164 315.526 99.7366 312.687L196.29 242.772C198.041 241.504 198.779 239.254 198.119 237.195L161.665 123.511C160.186 118.897 165.476 115.087 169.383 117.952L265.459 188.403C267.21 189.687 269.59 189.695 271.348 188.421L367.845 118.547C371.769 115.705 377.036 119.547 375.529 124.152L338.395 237.616C337.722 239.671 338.447 241.925 340.19 243.203L436.322 313.696C440.226 316.558 438.191 322.743 433.351 322.728L314.296 322.371C312.128 322.365 310.203 323.756 309.529 325.816L272.408 439.239Z" fill="#FFCB44"/>
<path d="M384.458 401.722C386.257 406.224 381.257 410.407 377.163 407.824L276.397 344.25C274.566 343.095 272.202 343.254 270.54 344.644L179.112 421.122C175.397 424.229 169.89 420.757 171.074 416.054L200.224 300.279C200.753 298.176 199.873 295.971 198.043 294.817L97.2704 231.239C93.1773 228.657 94.7736 222.328 99.5998 222.004L218.379 214.032C220.538 213.887 222.359 212.364 222.889 210.259L252.035 94.4964C253.22 89.7926 259.713 89.3539 261.511 93.8561L305.777 204.7C306.581 206.713 308.585 207.977 310.743 207.832L429.534 199.859C434.359 199.535 436.776 205.592 433.062 208.699L341.633 285.177C339.972 286.567 339.391 288.871 340.195 290.885L384.458 401.722Z" fill="#FFCB44"/>
<path d="M197.161 269.151C197.279 229.805 229.174 198.024 268.375 198.142C307.575 198.26 339.279 230.231 339.161 269.577C339.043 308.922 307.148 340.703 267.947 340.585C228.746 340.468 197.043 308.496 197.161 269.151Z" fill="#FFCB44" stroke="#FFA800" stroke-width="8"/>
<path d="M207.161 269.181C207.263 235.374 234.666 208.071 268.344 208.172C302.022 208.273 329.262 235.74 329.161 269.547C329.059 303.353 301.655 330.657 267.977 330.556C234.299 330.455 207.06 302.987 207.161 269.181Z" fill="#FFCB44" stroke="#FFA800" stroke-width="8"/>
<path d="M217.161 269.211C217.246 240.943 240.159 218.117 268.314 218.201C296.47 218.286 319.246 241.249 319.161 269.517C319.076 297.784 296.163 320.611 268.008 320.526C239.852 320.442 217.076 297.478 217.161 269.211Z" fill="#FFCB44" stroke="#FFA800" stroke-width="8"/>
<path d="M227.161 269.241C227.229 246.512 245.652 228.163 268.284 228.231C290.917 228.299 309.229 246.758 309.161 269.487C309.093 292.215 290.67 310.564 268.038 310.497C245.405 310.429 227.093 291.969 227.161 269.241Z" fill="#FFCB44" stroke="#FFA800" stroke-width="8"/>
<path d="M237.161 269.271C237.213 252.082 251.144 238.209 268.254 238.26C285.364 238.312 299.212 252.268 299.161 269.457C299.109 286.646 285.177 300.518 268.068 300.467C250.958 300.416 237.109 286.46 237.161 269.271Z" fill="#FFCB44" stroke="#FFA800" stroke-width="8"/>
<path d="M247.161 269.301C247.196 257.651 256.637 248.255 268.224 248.29C279.811 248.325 289.196 257.777 289.161 269.427C289.126 281.077 279.685 290.472 268.098 290.438C256.511 290.403 247.126 280.951 247.161 269.301Z" fill="#FFCB44" stroke="#FFA800" stroke-width="8"/>
<path d="M257.161 269.331C257.179 263.22 262.13 258.302 268.194 258.32C274.258 258.338 279.179 263.286 279.161 269.397C279.143 275.507 274.192 280.426 268.128 280.408C262.064 280.39 257.143 275.441 257.161 269.331Z" fill="#FFCB44" stroke="#FFA800" stroke-width="8"/>
<mask id="path-10-inside-1_99_976" fill="white">
<ellipse cx="268.161" cy="269.364" rx="5" ry="5.01468" transform="rotate(-179.828 268.161 269.364)"/>
</mask>
<ellipse cx="268.161" cy="269.364" rx="5" ry="5.01468" transform="rotate(-179.828 268.161 269.364)" fill="#FFCB44"/>
<path d="M271.161 269.373C271.156 270.999 269.831 272.354 268.152 272.349L268.2 256.349C260.998 256.327 255.183 262.159 255.161 269.325L271.161 269.373ZM268.152 272.349C266.473 272.344 265.156 270.981 265.161 269.355L281.161 269.403C281.182 262.237 275.402 256.371 268.2 256.349L268.152 272.349ZM265.161 269.355C265.166 267.728 266.491 266.373 268.17 266.378L268.122 282.378C275.324 282.4 281.14 276.568 281.161 269.403L265.161 269.355ZM268.17 266.378C269.849 266.383 271.166 267.746 271.161 269.373L255.161 269.325C255.14 276.49 260.92 282.357 268.122 282.378L268.17 266.378Z" fill="#FFA800" mask="url(#path-10-inside-1_99_976)"/>
</svg>
