<svg width="432" height="62" viewBox="0 0 432 62" fill="none" xmlns="http://www.w3.org/2000/svg">
<g filter="url(#filter0_d_71_574)">
<path d="M59.744 48H36.96L35.936 35.84H34.592L33.632 48H11.168L4.896 3.776H24.416L26.08 24.768H27.424L28.96 4.864H41.888L43.616 24.768H45.024L46.624 3.776H65.888L59.744 48ZM66.7935 29.184C66.7935 22.656 68.2655 17.7493 71.2095 14.464C74.1962 11.1787 79.0602 9.536 85.8015 9.536C92.5428 9.536 97.2362 10.9013 99.8815 13.632C102.527 16.3627 103.85 20.8427 103.85 27.072L103.53 32H85.8655V34.176C86.9322 34.432 88.4895 34.56 90.5375 34.56C94.8895 34.56 98.4095 34.368 101.097 33.984L102.442 33.792V45.824C102.1 46.0373 101.546 46.3147 100.778 46.656C100.052 46.9547 98.2815 47.36 95.4655 47.872C92.6495 48.384 89.5135 48.64 86.0575 48.64C79.2308 48.64 74.3028 47.0187 71.2735 43.776C68.2868 40.5333 66.7935 35.6693 66.7935 29.184ZM84.9055 26.304V28.8H88.5535V26.304C88.5535 25.7493 88.3615 25.3013 87.9775 24.96C87.6362 24.6187 87.1882 24.448 86.6335 24.448C86.1215 24.448 85.6948 24.6187 85.3535 24.96C85.0548 25.3013 84.9055 25.7493 84.9055 26.304ZM144.174 23.808L143.854 31.68L145.454 31.616V46.144C144.686 46.784 143.363 47.36 141.486 47.872C139.609 48.384 137.838 48.64 136.174 48.64C134.51 48.64 133.187 48.4907 132.206 48.192C131.225 47.8933 130.499 47.5733 130.03 47.232C129.561 46.848 129.198 46.4213 128.942 45.952C128.558 45.2693 128.366 44.6933 128.366 44.224C126.019 47.168 122.286 48.64 117.166 48.64C110.126 48.64 106.606 45.6533 106.606 39.68C106.606 36.096 107.971 33.5573 110.702 32.064C113.433 30.528 118.211 29.6107 125.038 29.312C125.038 27.8187 123.395 27.072 120.11 27.072C117.891 27.072 115.758 27.3493 113.71 27.904C111.705 28.4587 110.254 29.0133 109.358 29.568L107.95 30.4V13.568C108.334 13.2693 108.91 12.9067 109.678 12.48C110.446 12.0107 112.259 11.4133 115.118 10.688C117.977 9.92 121.113 9.536 124.526 9.536C131.353 9.536 136.323 10.688 139.438 12.992C142.595 15.296 144.174 18.9013 144.174 23.808ZM126.062 33.984V31.424L122.414 32.448V33.984C122.414 34.5387 122.585 34.9867 122.926 35.328C123.31 35.6693 123.758 35.84 124.27 35.84C124.825 35.84 125.251 35.6693 125.55 35.328C125.891 34.9867 126.062 34.5387 126.062 33.984ZM171.579 28.032V30.912H177.339V46.016C177.126 46.2293 176.763 46.4853 176.251 46.784C175.782 47.04 174.523 47.424 172.475 47.936C170.427 48.4053 168.059 48.64 165.371 48.64C155.6 48.64 150.715 44.3733 150.715 35.84V28.032H148.219V12.096C150.054 11.5413 151.675 10.5173 153.083 9.024C154.491 7.53066 155.451 6.18666 155.963 4.992L156.731 3.136H172.795V10.176H177.339V28.032H171.579ZM202.804 48V27.712C202.804 27.2 202.612 26.7733 202.228 26.432C201.886 26.048 201.46 25.856 200.948 25.856C200.436 25.856 200.009 26.048 199.668 26.432C199.326 26.7733 199.156 27.2 199.156 27.712V48H181.044V0.319996H200.116V8.384L199.476 13.888C199.646 13.3333 199.945 12.7787 200.372 12.224C200.798 11.6693 201.716 11.0933 203.124 10.496C204.532 9.856 206.26 9.536 208.308 9.536C212.489 9.536 215.625 10.688 217.716 12.992C219.849 15.296 220.916 18.6453 220.916 23.04V48H202.804ZM224.606 29.184C224.606 22.656 226.078 17.7493 229.022 14.464C232.009 11.1787 236.873 9.536 243.614 9.536C250.355 9.536 255.049 10.9013 257.694 13.632C260.339 16.3627 261.662 20.8427 261.662 27.072L261.342 32H243.678V34.176C244.745 34.432 246.302 34.56 248.35 34.56C252.702 34.56 256.222 34.368 258.91 33.984L260.254 33.792V45.824C259.913 46.0373 259.358 46.3147 258.59 46.656C257.865 46.9547 256.094 47.36 253.278 47.872C250.462 48.384 247.326 48.64 243.87 48.64C237.043 48.64 232.115 47.0187 229.086 43.776C226.099 40.5333 224.606 35.6693 224.606 29.184ZM242.718 26.304V28.8H246.366V26.304C246.366 25.7493 246.174 25.3013 245.79 24.96C245.449 24.6187 245.001 24.448 244.446 24.448C243.934 24.448 243.507 24.6187 243.166 24.96C242.867 25.3013 242.718 25.7493 242.718 26.304ZM284.366 48H265.294V10.176H281.358L281.998 14.848C282.083 14.72 282.19 14.5493 282.318 14.336C282.446 14.1227 282.808 13.76 283.406 13.248C284.003 12.6933 284.686 12.2027 285.454 11.776C287.587 10.7093 290.275 10.176 293.518 10.176V30.528L284.366 29.632V48ZM319.728 48L319.344 41.152H315.44L315.056 48H294.896C295.323 41.0027 296.197 33.8347 297.52 26.496C298.843 19.1147 300.059 13.4827 301.168 9.6L302.768 3.776H333.104C333.573 5.312 334.171 7.44533 334.896 10.176C335.621 12.9067 336.688 18.1547 338.096 25.92C339.504 33.6427 340.464 41.0027 340.976 48H319.728ZM316.4 25.28L315.888 35.264H318.896L318.448 25.28H316.4ZM367.987 48.64C365.726 48.64 363.998 48.2133 362.803 47.36V53.952H343.731V10.176H359.795L360.435 14.848C361.203 12.5867 362.91 11.008 365.555 10.112C366.664 9.728 367.902 9.536 369.267 9.536C374.046 9.536 377.63 11.3707 380.019 15.04C382.408 18.6667 383.603 23.4453 383.603 29.376C383.603 35.3067 382.238 40 379.507 43.456C376.819 46.912 372.979 48.64 367.987 48.64ZM361.843 28.608V33.984C361.843 34.5387 361.992 34.9867 362.291 35.328C362.632 35.6693 363.059 35.84 363.571 35.84C364.126 35.84 364.574 35.6693 364.915 35.328C365.299 34.9867 365.491 34.5387 365.491 33.984V28.608C365.491 28.096 365.299 27.6693 364.915 27.328C364.574 26.944 364.147 26.752 363.635 26.752C363.123 26.752 362.696 26.944 362.355 27.328C362.014 27.6693 361.843 28.096 361.843 28.608ZM411.55 48.64C409.288 48.64 407.56 48.2133 406.366 47.36V53.952H387.294V10.176H403.358L403.998 14.848C404.766 12.5867 406.472 11.008 409.118 10.112C410.227 9.728 411.464 9.536 412.83 9.536C417.608 9.536 421.192 11.3707 423.582 15.04C425.971 18.6667 427.166 23.4453 427.166 29.376C427.166 35.3067 425.8 40 423.069 43.456C420.382 46.912 416.542 48.64 411.55 48.64ZM405.406 28.608V33.984C405.406 34.5387 405.555 34.9867 405.854 35.328C406.195 35.6693 406.622 35.84 407.134 35.84C407.688 35.84 408.136 35.6693 408.478 35.328C408.862 34.9867 409.054 34.5387 409.054 33.984V28.608C409.054 28.096 408.862 27.6693 408.478 27.328C408.136 26.944 407.71 26.752 407.198 26.752C406.686 26.752 406.259 26.944 405.918 27.328C405.576 27.6693 405.406 28.096 405.406 28.608Z" fill="#FFA800"/>
<path d="M59.744 48V51H62.356L62.7155 48.4128L59.744 48ZM36.96 48L33.9706 48.2517L34.202 51H36.96V48ZM35.936 35.84L38.9254 35.5883L38.694 32.84H35.936V35.84ZM34.592 35.84V32.84H31.8195L31.6013 35.6039L34.592 35.84ZM33.632 48V51H36.4045L36.6227 48.2361L33.632 48ZM11.168 48L8.19772 48.4213L8.56345 51H11.168V48ZM4.896 3.776V0.775997H1.44051L1.92572 4.19725L4.896 3.776ZM24.416 3.776L27.4066 3.53894L27.1876 0.775997H24.416V3.776ZM26.08 24.768L23.0894 25.0051L23.3084 27.768H26.08V24.768ZM27.424 24.768V27.768H30.2014L30.4151 24.9988L27.424 24.768ZM28.96 4.864V1.864H26.1826L25.9689 4.63317L28.96 4.864ZM41.888 4.864L44.8768 4.60452L44.6388 1.864H41.888V4.864ZM43.616 24.768L40.6272 25.0275L40.8652 27.768H43.616V24.768ZM45.024 24.768V27.768H47.804L48.0153 24.996L45.024 24.768ZM46.624 3.776V0.775997H43.844L43.6327 3.548L46.624 3.776ZM65.888 3.776L68.8595 4.18882L69.3336 0.775997H65.888V3.776ZM59.744 45H36.96V51H59.744V45ZM39.9494 47.7483L38.9254 35.5883L32.9466 36.0917L33.9706 48.2517L39.9494 47.7483ZM35.936 32.84H34.592V38.84H35.936V32.84ZM31.6013 35.6039L30.6413 47.7639L36.6227 48.2361L37.5827 36.0761L31.6013 35.6039ZM33.632 45H11.168V51H33.632V45ZM14.1383 47.5787L7.86628 3.35474L1.92572 4.19725L8.19772 48.4213L14.1383 47.5787ZM4.896 6.776H24.416V0.775997H4.896V6.776ZM21.4254 4.01306L23.0894 25.0051L29.0706 24.5309L27.4066 3.53894L21.4254 4.01306ZM26.08 27.768H27.424V21.768H26.08V27.768ZM30.4151 24.9988L31.9511 5.09482L25.9689 4.63317L24.4329 24.5372L30.4151 24.9988ZM28.96 7.864H41.888V1.864H28.96V7.864ZM38.8992 5.12347L40.6272 25.0275L46.6048 24.5085L44.8768 4.60452L38.8992 5.12347ZM43.616 27.768H45.024V21.768H43.616V27.768ZM48.0153 24.996L49.6153 4.00399L43.6327 3.548L42.0327 24.54L48.0153 24.996ZM46.624 6.776H65.888V0.775997H46.624V6.776ZM62.9165 3.36317L56.7725 47.5872L62.7155 48.4128L68.8595 4.18882L62.9165 3.36317ZM71.2095 14.464L68.9897 12.446L68.9825 12.4539L68.9753 12.4619L71.2095 14.464ZM99.8815 13.632L97.7268 15.7194L97.7268 15.7194L99.8815 13.632ZM103.85 27.072L106.843 27.2664L106.85 27.1693V27.072H103.85ZM103.53 32V35H106.341L106.523 32.1944L103.53 32ZM85.8655 32V29H82.8655V32H85.8655ZM85.8655 34.176H82.8655V36.5412L85.1654 37.0932L85.8655 34.176ZM101.098 33.984L100.673 31.0142L101.098 33.984ZM102.441 33.792H105.441V30.333L102.017 30.8222L102.441 33.792ZM102.441 45.824L104.031 48.368L105.441 47.4867V45.824H102.441ZM100.777 46.656L101.92 49.43L101.958 49.4143L101.996 49.3974L100.777 46.656ZM95.4655 47.872L94.9288 44.9204L95.4655 47.872ZM71.2735 43.776L69.0669 45.8084L69.0741 45.8162L69.0813 45.824L71.2735 43.776ZM84.9055 28.8H81.9055V31.8H84.9055V28.8ZM88.5535 28.8V31.8H91.5535V28.8H88.5535ZM87.9775 24.96L85.8562 27.0813L85.9185 27.1437L85.9844 27.2022L87.9775 24.96ZM85.3535 24.96L83.2322 22.8387L83.1615 22.9093L83.0958 22.9845L85.3535 24.96ZM69.7935 29.184C69.7935 23.0483 71.1834 18.9885 73.4437 16.4661L68.9753 12.4619C65.3476 16.5102 63.7935 22.2637 63.7935 29.184H69.7935ZM73.4293 16.482C75.608 14.0854 79.4681 12.536 85.8015 12.536V6.536C78.6523 6.536 72.7843 8.2719 68.9897 12.446L73.4293 16.482ZM85.8015 12.536C92.3109 12.536 95.9518 13.8871 97.7268 15.7194L102.036 11.5446C98.5206 7.91557 92.7748 6.536 85.8015 6.536V12.536ZM97.7268 15.7194C99.5725 17.6246 100.85 21.1502 100.85 27.072H106.85C106.85 20.5352 105.481 15.1007 102.036 11.5446L97.7268 15.7194ZM100.856 26.8776L100.536 31.8056L106.523 32.1944L106.843 27.2664L100.856 26.8776ZM103.53 29H85.8655V35H103.53V29ZM82.8655 32V34.176H88.8655V32H82.8655ZM85.1654 37.0932C86.5802 37.4327 88.4195 37.56 90.5375 37.56V31.56C88.5595 31.56 87.2841 31.4313 86.5656 31.2588L85.1654 37.0932ZM90.5375 37.56C94.9578 37.56 98.6355 37.3662 101.522 36.9538L100.673 31.0142C98.1835 31.3698 94.8212 31.56 90.5375 31.56V37.56ZM101.522 36.9538L102.866 36.7618L102.017 30.8222L100.673 31.0142L101.522 36.9538ZM99.4415 33.792V45.824H105.441V33.792H99.4415ZM100.852 43.28C100.699 43.3756 100.305 43.5828 99.5591 43.9146L101.996 49.3974C102.786 49.0465 103.502 48.6991 104.031 48.368L100.852 43.28ZM99.6352 43.882C99.265 44.0344 97.8431 44.3905 94.9288 44.9204L96.0022 50.8236C98.7199 50.3295 100.839 49.8749 101.92 49.43L99.6352 43.882ZM94.9288 44.9204C92.3218 45.3944 89.3692 45.64 86.0575 45.64V51.64C89.6578 51.64 92.9772 51.3736 96.0022 50.8236L94.9288 44.9204ZM86.0575 45.64C79.6196 45.64 75.6836 44.1021 73.4657 41.728L69.0813 45.824C72.9221 49.9353 78.8421 51.64 86.0575 51.64V45.64ZM73.4801 41.7436C71.199 39.2669 69.7935 35.2653 69.7935 29.184H63.7935C63.7935 36.0734 65.3747 41.7998 69.0669 45.8084L73.4801 41.7436ZM81.9055 26.304V28.8H87.9055V26.304H81.9055ZM84.9055 31.8H88.5535V25.8H84.9055V31.8ZM91.5535 28.8V26.304H85.5535V28.8H91.5535ZM91.5535 26.304C91.5535 24.9692 91.0503 23.6775 89.9706 22.7178L85.9844 27.2022C85.865 27.0961 85.7392 26.937 85.6521 26.7338C85.5674 26.5362 85.5535 26.3771 85.5535 26.304H91.5535ZM90.0988 22.8387C89.11 21.8499 87.8552 21.448 86.6335 21.448V27.448C86.6023 27.448 86.4836 27.4427 86.3175 27.3795C86.1434 27.3131 85.9825 27.2076 85.8562 27.0813L90.0988 22.8387ZM86.6335 21.448C85.3794 21.448 84.1729 21.898 83.2322 22.8387L87.4748 27.0813C87.373 27.1832 87.2265 27.2883 87.0437 27.3614C86.8644 27.4331 86.7157 27.448 86.6335 27.448V21.448ZM83.0958 22.9845C82.2179 23.9877 81.9055 25.1916 81.9055 26.304H87.9055C87.9055 26.2942 87.9069 26.3707 87.8635 26.5007C87.8175 26.6388 87.735 26.794 87.6112 26.9355L83.0958 22.9845ZM144.174 23.808L147.172 23.9299L147.174 23.8689V23.808H144.174ZM143.854 31.68L140.856 31.5581L140.724 34.8076L143.974 34.6776L143.854 31.68ZM145.454 31.616H148.454V28.4936L145.334 28.6184L145.454 31.616ZM145.454 46.144L147.375 48.4487L148.454 47.5491V46.144H145.454ZM141.486 47.872L140.697 44.9777H140.697L141.486 47.872ZM132.206 48.192L133.079 45.322L132.206 48.192ZM130.03 47.232L128.13 49.5539L128.196 49.608L128.265 49.6582L130.03 47.232ZM128.942 45.952L131.576 44.5154L131.566 44.4983L131.557 44.4812L128.942 45.952ZM128.366 44.224H131.366V35.6474L126.02 42.3541L128.366 44.224ZM110.702 32.064L112.141 34.6961L112.157 34.6875L112.173 34.6787L110.702 32.064ZM125.038 29.312L125.169 32.3091L128.038 32.1836V29.312H125.038ZM113.71 27.904L112.926 25.0083L112.918 25.0104L112.91 25.0126L113.71 27.904ZM109.358 29.568L110.884 32.1508L110.911 32.1351L110.937 32.1188L109.358 29.568ZM107.95 30.4H104.95V35.6573L109.476 32.9828L107.95 30.4ZM107.95 13.568L106.108 11.1999L104.95 12.1007V13.568H107.95ZM109.678 12.48L111.135 15.1025L111.189 15.0723L111.242 15.0398L109.678 12.48ZM115.118 10.688L115.856 13.5959L115.876 13.5907L115.896 13.5853L115.118 10.688ZM139.438 12.992L137.654 15.4038L137.662 15.4096L137.67 15.4154L139.438 12.992ZM126.062 31.424H129.062V27.4659L125.251 28.5356L126.062 31.424ZM122.414 32.448L121.603 29.5596L119.414 30.1742V32.448H122.414ZM122.926 35.328L120.805 37.4493L120.867 37.5117L120.933 37.5702L122.926 35.328ZM125.55 35.328L123.429 33.2067L123.358 33.2773L123.292 33.3525L125.55 35.328ZM141.176 23.6861L140.856 31.5581L146.852 31.8018L147.172 23.9299L141.176 23.6861ZM143.974 34.6776L145.574 34.6136L145.334 28.6184L143.734 28.6824L143.974 34.6776ZM142.454 31.616V46.144H148.454V31.616H142.454ZM143.533 43.8393C143.28 44.0506 142.479 44.4917 140.697 44.9777L142.275 50.7663C144.248 50.2283 146.092 49.5174 147.375 48.4487L143.533 43.8393ZM140.697 44.9777C139.034 45.4311 137.531 45.64 136.174 45.64V51.64C138.145 51.64 140.183 51.3369 142.275 50.7663L140.697 44.9777ZM136.174 45.64C134.646 45.64 133.657 45.4978 133.079 45.322L131.333 51.062C132.717 51.4835 134.374 51.64 136.174 51.64V45.64ZM133.079 45.322C132.212 45.0579 131.862 44.8548 131.795 44.8058L128.265 49.6582C129.137 50.2919 130.237 50.7287 131.333 51.062L133.079 45.322ZM131.93 44.9101C131.72 44.7384 131.623 44.6025 131.576 44.5154L126.308 47.3885C126.773 48.2401 127.401 48.9576 128.13 49.5539L131.93 44.9101ZM131.557 44.4812C131.433 44.2611 131.377 44.1231 131.356 44.0593C131.334 43.9922 131.366 44.0574 131.366 44.224H125.366C125.366 45.4455 125.84 46.5567 126.327 47.4228L131.557 44.4812ZM126.02 42.3541C124.43 44.3489 121.723 45.64 117.166 45.64V51.64C122.849 51.64 127.609 49.9871 130.712 46.0939L126.02 42.3541ZM117.166 45.64C113.999 45.64 112.183 44.9578 111.187 44.1125C110.285 43.3472 109.606 42.0634 109.606 39.68H103.606C103.606 43.2699 104.687 46.4661 107.305 48.6875C109.829 50.8289 113.293 51.64 117.166 51.64V45.64ZM109.606 39.68C109.606 36.9918 110.537 35.5734 112.141 34.6961L109.263 29.4319C105.405 31.5412 103.606 35.2002 103.606 39.68H109.606ZM112.173 34.6787C114.235 33.5186 118.383 32.606 125.169 32.3091L124.907 26.3149C118.04 26.6153 112.63 27.5374 109.231 29.4493L112.173 34.6787ZM128.038 29.312C128.038 28.3514 127.761 27.392 127.149 26.5579C126.562 25.7573 125.79 25.2384 125.047 24.9009C123.636 24.2593 121.886 24.072 120.11 24.072V30.072C120.825 30.072 121.388 30.1131 121.817 30.1781C122.255 30.2446 122.481 30.3251 122.565 30.3631C122.643 30.3989 122.487 30.3467 122.311 30.1061C122.11 29.832 122.038 29.5259 122.038 29.312H128.038ZM120.11 24.072C117.639 24.072 115.241 24.3813 112.926 25.0083L114.494 30.7997C116.275 30.3174 118.144 30.072 120.11 30.072V24.072ZM112.91 25.0126C110.843 25.5844 109.052 26.2292 107.779 27.0172L110.937 32.1188C111.456 31.7975 112.567 31.3329 114.51 30.7954L112.91 25.0126ZM107.832 26.9852L106.424 27.8172L109.476 32.9828L110.884 32.1508L107.832 26.9852ZM110.95 30.4V13.568H104.95V30.4H110.95ZM109.792 15.9361C109.994 15.7787 110.413 15.5037 111.135 15.1025L108.221 9.85753C107.407 10.3096 106.674 10.76 106.108 11.1999L109.792 15.9361ZM111.242 15.0398C111.239 15.0421 111.264 15.0266 111.329 14.9951C111.392 14.9644 111.479 14.9247 111.596 14.8766C111.831 14.7795 112.146 14.6634 112.553 14.5294C113.368 14.2609 114.462 13.9495 115.856 13.5959L114.38 7.78014C112.915 8.15182 111.674 8.50178 110.675 8.83061C109.737 9.13973 108.811 9.49372 108.114 9.92015L111.242 15.0398ZM115.896 13.5853C118.466 12.8949 121.336 12.536 124.526 12.536V6.536C120.889 6.536 117.487 6.94506 114.34 7.79074L115.896 13.5853ZM124.526 12.536C131.144 12.536 135.32 13.6775 137.654 15.4038L141.222 10.5802C137.327 7.69851 131.561 6.536 124.526 6.536V12.536ZM137.67 15.4154C139.857 17.0112 141.174 19.5871 141.174 23.808H147.174C147.174 18.2155 145.334 13.5807 141.206 10.5686L137.67 15.4154ZM129.062 33.984V31.424H123.062V33.984H129.062ZM125.251 28.5356L121.603 29.5596L123.225 35.3364L126.873 34.3124L125.251 28.5356ZM119.414 32.448V33.984H125.414V32.448H119.414ZM119.414 33.984C119.414 35.2057 119.816 36.4605 120.805 37.4493L125.047 33.2067C125.174 33.333 125.279 33.4939 125.345 33.668C125.409 33.8341 125.414 33.9528 125.414 33.984H119.414ZM120.933 37.5702C121.864 38.3978 123.02 38.84 124.27 38.84V32.84C124.354 32.84 124.478 32.8553 124.618 32.9085C124.758 32.9617 124.859 33.0323 124.919 33.0858L120.933 37.5702ZM124.27 38.84C125.48 38.84 126.814 38.4386 127.808 37.3035L123.292 33.3525C123.459 33.1618 123.671 33.0147 123.892 32.9266C124.098 32.8441 124.243 32.84 124.27 32.84V38.84ZM127.671 37.4493C128.66 36.4605 129.062 35.2057 129.062 33.984H123.062C123.062 33.9528 123.067 33.8341 123.131 33.668C123.197 33.4939 123.302 33.333 123.429 33.2067L127.671 37.4493ZM171.579 28.032V25.032H168.579V28.032H171.579ZM171.579 30.912H168.579V33.912H171.579V30.912ZM177.339 30.912H180.339V27.912H177.339V30.912ZM177.339 46.016L179.46 48.1373L180.339 47.2586V46.016H177.339ZM176.251 46.784L177.688 49.4177L177.725 49.397L177.763 49.3753L176.251 46.784ZM172.475 47.936L173.145 50.8602L173.174 50.8536L173.203 50.8464L172.475 47.936ZM150.715 28.032H153.715V25.032H150.715V28.032ZM148.219 28.032H145.219V31.032H148.219V28.032ZM148.219 12.096L147.351 9.22436L145.219 9.86887V12.096H148.219ZM153.083 9.024L150.9 6.96596L153.083 9.024ZM155.963 4.992L158.72 6.17376L158.728 6.15645L158.735 6.13905L155.963 4.992ZM156.731 3.136V0.135998H154.726L153.959 1.98894L156.731 3.136ZM172.795 3.136H175.795V0.135998H172.795V3.136ZM172.795 10.176H169.795V13.176H172.795V10.176ZM177.339 10.176H180.339V7.176H177.339V10.176ZM177.339 28.032V31.032H180.339V28.032H177.339ZM168.579 28.032V30.912H174.579V28.032H168.579ZM171.579 33.912H177.339V27.912H171.579V33.912ZM174.339 30.912V46.016H180.339V30.912H174.339ZM175.218 43.8947C175.274 43.8386 175.277 43.8462 175.177 43.9171C175.085 43.9818 174.944 44.0735 174.739 44.1927L177.763 49.3753C178.327 49.0462 178.964 48.6333 179.46 48.1373L175.218 43.8947ZM174.814 44.1503C174.878 44.1156 174.715 44.2008 174.08 44.3946C173.519 44.5655 172.747 44.7756 171.747 45.0256L173.203 50.8464C174.251 50.5844 175.132 50.3465 175.83 50.1334C176.454 49.9432 177.155 49.7084 177.688 49.4177L174.814 44.1503ZM171.805 45.0118C170.028 45.4191 167.893 45.64 165.371 45.64V51.64C168.225 51.64 170.826 51.3916 173.145 50.8602L171.805 45.0118ZM165.371 45.64C160.856 45.64 158.03 44.6454 156.352 43.1804C154.753 41.7833 153.715 39.5306 153.715 35.84H147.715C147.715 40.6827 149.12 44.8301 152.406 47.6996C155.614 50.5013 160.115 51.64 165.371 51.64V45.64ZM153.715 35.84V28.032H147.715V35.84H153.715ZM150.715 25.032H148.219V31.032H150.715V25.032ZM151.219 28.032V12.096H145.219V28.032H151.219ZM149.087 14.9676C151.459 14.2505 153.525 12.9288 155.266 11.082L150.9 6.96596C149.825 8.10585 148.648 8.83213 147.351 9.22436L149.087 14.9676ZM155.266 11.082C156.792 9.46341 158.013 7.82389 158.72 6.17376L153.206 3.81024C152.889 4.54944 152.19 5.59791 150.9 6.96596L155.266 11.082ZM158.735 6.13905L159.503 4.28305L153.959 1.98894L153.191 3.84494L158.735 6.13905ZM156.731 6.136H172.795V0.135998H156.731V6.136ZM169.795 3.136V10.176H175.795V3.136H169.795ZM172.795 13.176H177.339V7.176H172.795V13.176ZM174.339 10.176V28.032H180.339V10.176H174.339ZM177.339 25.032H171.579V31.032H177.339V25.032ZM202.803 48H199.803V51H202.803V48ZM202.228 26.432L199.985 28.4251L200.103 28.557L200.234 28.6742L202.228 26.432ZM199.667 26.432L201.789 28.5533L201.851 28.491L201.91 28.4251L199.667 26.432ZM199.156 48V51H202.156V48H199.156ZM181.044 48H178.044V51H181.044V48ZM181.044 0.319996V-2.68H178.044V0.319996H181.044ZM200.116 0.319996H203.116V-2.68H200.116V0.319996ZM200.116 8.384L203.095 8.7305L203.116 8.55783V8.384H200.116ZM199.475 13.888L196.496 13.5415L202.343 14.7703L199.475 13.888ZM200.372 12.224L202.749 14.0531L200.372 12.224ZM203.124 10.496L204.295 13.2577L204.33 13.2429L204.365 13.2271L203.124 10.496ZM217.715 12.992L215.494 15.008L215.504 15.0191L215.514 15.0302L217.715 12.992ZM220.915 48V51H223.915V48H220.915ZM205.803 48V27.712H199.803V48H205.803ZM205.803 27.712C205.803 26.3397 205.243 25.0981 204.221 24.1898L200.234 28.6742C200.142 28.5918 200.018 28.4478 199.924 28.2391C199.83 28.0301 199.803 27.84 199.803 27.712H205.803ZM204.47 24.4389C203.561 23.417 202.32 22.856 200.947 22.856V28.856C200.819 28.856 200.629 28.8298 200.42 28.7358C200.212 28.6418 200.068 28.5179 199.985 28.4251L204.47 24.4389ZM200.947 22.856C199.575 22.856 198.334 23.417 197.425 24.4389L201.91 28.4251C201.827 28.5179 201.683 28.6418 201.475 28.7358C201.266 28.8298 201.076 28.856 200.947 28.856V22.856ZM197.546 24.3107C196.605 25.2514 196.156 26.4579 196.156 27.712H202.156C202.156 27.7942 202.141 27.9429 202.069 28.1222C201.996 28.305 201.891 28.4515 201.789 28.5533L197.546 24.3107ZM196.156 27.712V48H202.156V27.712H196.156ZM199.156 45H181.044V51H199.156V45ZM184.044 48V0.319996H178.044V48H184.044ZM181.044 3.32H200.116V-2.68H181.044V3.32ZM197.116 0.319996V8.384H203.116V0.319996H197.116ZM197.136 8.03749L196.496 13.5415L202.455 14.2345L203.095 8.7305L197.136 8.03749ZM202.343 14.7703C202.389 14.6203 202.497 14.3807 202.749 14.0531L197.994 10.3949C197.392 11.1766 196.903 12.0464 196.608 13.0057L202.343 14.7703ZM202.749 14.0531C202.661 14.1681 202.67 14.1078 202.975 13.9167C203.256 13.7401 203.683 13.5173 204.295 13.2577L201.952 7.73425C200.508 8.34701 198.935 9.17083 197.994 10.3949L202.749 14.0531ZM204.365 13.2271C205.278 12.8119 206.556 12.536 208.307 12.536V6.536C205.963 6.536 203.785 6.90011 201.882 7.7649L204.365 13.2271ZM208.307 12.536C211.947 12.536 214.148 13.5254 215.494 15.008L219.937 10.976C217.101 7.85063 213.03 6.536 208.307 6.536V12.536ZM215.514 15.0302C216.96 16.5915 217.915 19.0981 217.915 23.04H223.915C223.915 18.1926 222.738 14.0005 219.917 10.9538L215.514 15.0302ZM217.915 23.04V48H223.915V23.04H217.915ZM220.915 45H202.803V51H220.915V45ZM229.022 14.464L226.802 12.446L226.795 12.4539L226.788 12.4619L229.022 14.464ZM257.694 13.632L255.539 15.7194V15.7194L257.694 13.632ZM261.662 27.072L264.656 27.2664L264.662 27.1693V27.072H261.662ZM261.342 32V35H264.154L264.336 32.1944L261.342 32ZM243.678 32V29H240.678V32H243.678ZM243.678 34.176H240.678V36.5412L242.978 37.0932L243.678 34.176ZM258.91 33.984L258.486 31.0142L258.91 33.984ZM260.254 33.792H263.254V30.333L259.83 30.8222L260.254 33.792ZM260.254 45.824L261.844 48.368L263.254 47.4867V45.824H260.254ZM258.59 46.656L259.732 49.43L259.771 49.4143L259.808 49.3974L258.59 46.656ZM253.278 47.872L252.741 44.9204L253.278 47.872ZM229.086 43.776L226.879 45.8084L226.887 45.8162L226.894 45.824L229.086 43.776ZM242.718 28.8H239.718V31.8H242.718V28.8ZM246.366 28.8V31.8H249.366V28.8H246.366ZM245.79 24.96L243.669 27.0813L243.731 27.1437L243.797 27.2022L245.79 24.96ZM243.166 24.96L241.045 22.8387L240.974 22.9093L240.908 22.9845L243.166 24.96ZM227.606 29.184C227.606 23.0483 228.996 18.9885 231.256 16.4661L226.788 12.4619C223.16 16.5102 221.606 22.2637 221.606 29.184H227.606ZM231.242 16.482C233.421 14.0854 237.281 12.536 243.614 12.536V6.536C236.465 6.536 230.597 8.2719 226.802 12.446L231.242 16.482ZM243.614 12.536C250.123 12.536 253.764 13.8871 255.539 15.7194L259.849 11.5446C256.333 7.91557 250.587 6.536 243.614 6.536V12.536ZM255.539 15.7194C257.385 17.6246 258.662 21.1502 258.662 27.072H264.662C264.662 20.5352 263.294 15.1007 259.849 11.5446L255.539 15.7194ZM258.668 26.8776L258.348 31.8056L264.336 32.1944L264.656 27.2664L258.668 26.8776ZM261.342 29H243.678V35H261.342V29ZM240.678 32V34.176H246.678V32H240.678ZM242.978 37.0932C244.393 37.4327 246.232 37.56 248.35 37.56V31.56C246.372 31.56 245.097 31.4313 244.378 31.2588L242.978 37.0932ZM248.35 37.56C252.77 37.56 256.448 37.3662 259.334 36.9538L258.486 31.0142C255.996 31.3698 252.634 31.56 248.35 31.56V37.56ZM259.334 36.9538L260.678 36.7618L259.83 30.8222L258.486 31.0142L259.334 36.9538ZM257.254 33.792V45.824H263.254V33.792H257.254ZM258.664 43.28C258.511 43.3756 258.118 43.5828 257.372 43.9146L259.808 49.3974C260.598 49.0465 261.314 48.6991 261.844 48.368L258.664 43.28ZM257.448 43.882C257.078 44.0344 255.656 44.3905 252.741 44.9204L253.815 50.8236C256.532 50.3295 258.652 49.8749 259.732 49.43L257.448 43.882ZM252.741 44.9204C250.134 45.3944 247.182 45.64 243.87 45.64V51.64C247.47 51.64 250.79 51.3736 253.815 50.8236L252.741 44.9204ZM243.87 45.64C237.432 45.64 233.496 44.1021 231.278 41.728L226.894 45.824C230.735 49.9353 236.655 51.64 243.87 51.64V45.64ZM231.293 41.7436C229.011 39.2669 227.606 35.2653 227.606 29.184H221.606C221.606 36.0734 223.187 41.7998 226.879 45.8084L231.293 41.7436ZM239.718 26.304V28.8H245.718V26.304H239.718ZM242.718 31.8H246.366V25.8H242.718V31.8ZM249.366 28.8V26.304H243.366V28.8H249.366ZM249.366 26.304C249.366 24.9692 248.863 23.6775 247.783 22.7178L243.797 27.2022C243.678 27.0961 243.552 26.937 243.465 26.7338C243.38 26.5362 243.366 26.3771 243.366 26.304H249.366ZM247.911 22.8387C246.923 21.8499 245.668 21.448 244.446 21.448V27.448C244.415 27.448 244.296 27.4427 244.13 27.3795C243.956 27.3131 243.795 27.2076 243.669 27.0813L247.911 22.8387ZM244.446 21.448C243.192 21.448 241.985 21.898 241.045 22.8387L245.287 27.0813C245.185 27.1832 245.039 27.2883 244.856 27.3614C244.677 27.4331 244.528 27.448 244.446 27.448V21.448ZM240.908 22.9845C240.03 23.9877 239.718 25.1916 239.718 26.304H245.718C245.718 26.2942 245.719 26.3707 245.676 26.5007C245.63 26.6388 245.548 26.794 245.424 26.9355L240.908 22.9845ZM284.366 48V51H287.366V48H284.366ZM265.293 48H262.293V51H265.293V48ZM265.293 10.176V7.176H262.293V10.176H265.293ZM281.358 10.176L284.33 9.76884L283.975 7.176H281.358V10.176ZM281.997 14.848L279.025 15.2552L280.1 23.1023L284.494 16.5121L281.997 14.848ZM283.405 13.248L285.358 15.5258L285.403 15.487L285.447 15.4464L283.405 13.248ZM285.453 11.776L284.112 9.09272L284.054 9.12187L283.997 9.15353L285.453 11.776ZM293.518 10.176H296.518V7.176H293.518V10.176ZM293.518 30.528L293.225 33.5137L296.518 33.836V30.528H293.518ZM284.366 29.632L284.658 26.6463L281.366 26.324V29.632H284.366ZM284.366 45H265.293V51H284.366V45ZM268.293 48V10.176H262.293V48H268.293ZM265.293 13.176H281.358V7.176H265.293V13.176ZM278.385 10.5832L279.025 15.2552L284.97 14.4408L284.33 9.76884L278.385 10.5832ZM284.494 16.5121C284.616 16.328 284.75 16.1121 284.89 15.8795L279.745 12.7925C279.629 12.9866 279.549 13.112 279.501 13.1839L284.494 16.5121ZM284.89 15.8795C284.844 15.9566 284.805 16.0114 284.783 16.0408C284.76 16.0715 284.745 16.0895 284.741 16.0934C284.736 16.0992 284.754 16.0779 284.807 16.0253C284.913 15.9188 285.09 15.7551 285.358 15.5258L281.453 10.9702C281.123 11.2529 280.82 11.5266 280.564 11.7827C280.352 11.9949 280.008 12.3537 279.745 12.7925L284.89 15.8795ZM285.447 15.4464C285.854 15.0683 286.337 14.7169 286.91 14.3985L283.997 9.15353C283.034 9.68846 282.152 10.3184 281.364 11.0496L285.447 15.4464ZM286.795 14.4593C288.39 13.6619 290.582 13.176 293.518 13.176V7.176C289.968 7.176 286.784 7.75673 284.112 9.09272L286.795 14.4593ZM290.518 10.176V30.528H296.518V10.176H290.518ZM293.81 27.5423L284.658 26.6463L284.073 32.6177L293.225 33.5137L293.81 27.5423ZM281.366 29.632V48H287.366V29.632H281.366ZM319.728 48L316.733 48.168L316.892 51H319.728V48ZM319.344 41.152L322.339 40.984L322.18 38.152H319.344V41.152ZM315.44 41.152V38.152H312.604L312.445 40.984L315.44 41.152ZM315.056 48V51H317.892L318.051 48.168L315.056 48ZM294.896 48L291.902 47.8174L291.707 51H294.896V48ZM297.52 26.496L300.472 27.0281L300.473 27.0251L297.52 26.496ZM301.168 9.6L304.053 10.4242L304.057 10.4095L304.061 10.3947L301.168 9.6ZM302.768 3.776V0.775997H300.481L299.875 2.98127L302.768 3.776ZM333.104 3.776L335.973 2.89934L335.324 0.775997H333.104V3.776ZM334.896 10.176L337.795 9.40583V9.40583L334.896 10.176ZM338.096 25.92L335.144 26.4552L335.145 26.4581L338.096 25.92ZM340.976 48V51H344.204L343.968 47.7811L340.976 48ZM316.4 25.28V22.28H313.55L313.404 25.1264L316.4 25.28ZM315.888 35.264L312.892 35.1104L312.73 38.264H315.888V35.264ZM318.896 35.264V38.264H322.034L321.893 35.1295L318.896 35.264ZM318.448 25.28L321.445 25.1455L321.316 22.28H318.448V25.28ZM322.723 47.832L322.339 40.984L316.349 41.32L316.733 48.168L322.723 47.832ZM319.344 38.152H315.44V44.152H319.344V38.152ZM312.445 40.984L312.061 47.832L318.051 48.168L318.435 41.32L312.445 40.984ZM315.056 45H294.896V51H315.056V45ZM297.89 48.1826C298.31 41.3096 299.169 34.2585 300.472 27.0281L294.568 25.9639C293.225 33.4109 292.336 40.6957 291.902 47.8174L297.89 48.1826ZM300.473 27.0251C301.79 19.6745 302.985 14.1601 304.053 10.4242L298.283 8.77584C297.132 12.8052 295.895 18.5548 294.567 25.9669L300.473 27.0251ZM304.061 10.3947L305.661 4.57073L299.875 2.98127L298.275 8.80527L304.061 10.3947ZM302.768 6.776H333.104V0.775997H302.768V6.776ZM330.235 4.65265C330.688 6.13659 331.275 8.22884 331.997 10.9462L337.795 9.40583C337.067 6.66182 336.458 4.48741 335.973 2.89934L330.235 4.65265ZM331.997 10.9462C332.686 13.5432 333.734 18.6765 335.144 26.4552L341.048 25.3848C339.642 17.6329 338.556 12.2702 337.795 9.40583L331.997 10.9462ZM335.145 26.4581C336.536 34.0874 337.481 41.3403 337.984 48.2189L343.968 47.7811C343.447 40.665 342.472 33.198 341.047 25.3819L335.145 26.4581ZM340.976 45H319.728V51H340.976V45ZM313.404 25.1264L312.892 35.1104L318.884 35.4176L319.396 25.4336L313.404 25.1264ZM315.888 38.264H318.896V32.264H315.888V38.264ZM321.893 35.1295L321.445 25.1455L315.451 25.4145L315.899 35.3985L321.893 35.1295ZM318.448 22.28H316.4V28.28H318.448V22.28ZM362.803 47.36L364.547 44.9188L359.803 41.5304V47.36H362.803ZM362.803 53.952V56.952H365.803V53.952H362.803ZM343.731 53.952H340.731V56.952H343.731V53.952ZM343.731 10.176V7.176H340.731V10.176H343.731ZM359.795 10.176L362.767 9.76884L362.412 7.176H359.795V10.176ZM360.435 14.848L357.463 15.2552L363.276 15.8127L360.435 14.848ZM365.555 10.112L366.517 12.9534L366.527 12.9502L366.536 12.947L365.555 10.112ZM380.019 15.04L377.505 16.677L377.509 16.6838L377.514 16.6905L380.019 15.04ZM379.507 43.456L377.153 41.5961L377.146 41.6051L377.139 41.6142L379.507 43.456ZM362.291 35.328L360.033 37.3035L360.099 37.3787L360.17 37.4493L362.291 35.328ZM364.915 35.328L362.922 33.0858L362.856 33.1443L362.794 33.2067L364.915 35.328ZM364.915 27.328L362.673 29.3211L362.79 29.453L362.922 29.5702L364.915 27.328ZM362.355 27.328L364.476 29.4493L364.539 29.387L364.597 29.3211L362.355 27.328ZM367.987 45.64C366.035 45.64 365.025 45.2603 364.547 44.9188L361.059 49.8012C362.97 51.1663 365.416 51.64 367.987 51.64V45.64ZM359.803 47.36V53.952H365.803V47.36H359.803ZM362.803 50.952H343.731V56.952H362.803V50.952ZM346.731 53.952V10.176H340.731V53.952H346.731ZM343.731 13.176H359.795V7.176H343.731V13.176ZM356.823 10.5832L357.463 15.2552L363.407 14.4408L362.767 9.76884L356.823 10.5832ZM363.276 15.8127C363.69 14.5914 364.587 13.6073 366.517 12.9534L364.593 7.27057C361.232 8.40867 358.716 10.5819 357.594 13.8833L363.276 15.8127ZM366.536 12.947C367.283 12.6884 368.182 12.536 369.267 12.536V6.536C367.621 6.536 366.045 6.76759 364.574 7.27704L366.536 12.947ZM369.267 12.536C373.141 12.536 375.727 13.9462 377.505 16.677L382.533 13.403C379.533 8.79515 374.95 6.536 369.267 6.536V12.536ZM377.514 16.6905C379.482 19.6783 380.603 23.8238 380.603 29.376H386.603C386.603 23.0668 385.334 17.6551 382.524 13.3895L377.514 16.6905ZM380.603 29.376C380.603 34.8646 379.341 38.8274 377.153 41.5961L381.861 45.3159C385.135 41.1726 386.603 35.7487 386.603 29.376H380.603ZM377.139 41.6142C375.104 44.2306 372.2 45.64 367.987 45.64V51.64C373.758 51.64 378.534 49.5934 381.875 45.2978L377.139 41.6142ZM358.843 28.608V33.984H364.843V28.608H358.843ZM358.843 33.984C358.843 35.0964 359.155 36.3003 360.033 37.3035L364.549 33.3525C364.673 33.494 364.755 33.6492 364.801 33.7873C364.844 33.9173 364.843 33.9938 364.843 33.984H358.843ZM360.17 37.4493C361.11 38.39 362.317 38.84 363.571 38.84V32.84C363.653 32.84 363.802 32.8549 363.981 32.9266C364.164 32.9997 364.31 33.1048 364.412 33.2067L360.17 37.4493ZM363.571 38.84C364.793 38.84 366.048 38.4381 367.036 37.4493L362.794 33.2067C362.92 33.0804 363.081 32.9749 363.255 32.9085C363.421 32.8452 363.54 32.84 363.571 32.84V38.84ZM366.908 37.5702C367.988 36.6105 368.491 35.3188 368.491 33.984H362.491C362.491 33.9109 362.505 33.7518 362.59 33.5542C362.677 33.351 362.803 33.1919 362.922 33.0858L366.908 37.5702ZM368.491 33.984V28.608H362.491V33.984H368.491ZM368.491 28.608C368.491 27.2357 367.93 25.9941 366.908 25.0858L362.922 29.5702C362.829 29.4878 362.705 29.3438 362.611 29.1351C362.517 28.9261 362.491 28.736 362.491 28.608H368.491ZM367.157 25.3349C366.249 24.313 365.007 23.752 363.635 23.752V29.752C363.507 29.752 363.317 29.7258 363.108 29.6318C362.899 29.5378 362.755 29.4139 362.673 29.3211L367.157 25.3349ZM363.635 23.752C362.263 23.752 361.021 24.313 360.113 25.3349L364.597 29.3211C364.515 29.4139 364.371 29.5378 364.162 29.6318C363.953 29.7258 363.763 29.752 363.635 29.752V23.752ZM360.234 25.2067C359.293 26.1474 358.843 27.3539 358.843 28.608H364.843C364.843 28.6902 364.828 28.8389 364.756 29.0182C364.683 29.201 364.578 29.3475 364.476 29.4493L360.234 25.2067ZM406.366 47.36L408.109 44.9188L403.366 41.5304V47.36H406.366ZM406.366 53.952V56.952H409.366V53.952H406.366ZM387.293 53.952H384.293V56.952H387.293V53.952ZM387.293 10.176V7.176H384.293V10.176H387.293ZM403.358 10.176L406.33 9.76884L405.975 7.176H403.358V10.176ZM403.997 14.848L401.025 15.2552L406.838 15.8127L403.997 14.848ZM409.117 10.112L410.08 12.9534L410.089 12.9502L410.099 12.947L409.117 10.112ZM423.582 15.04L421.068 16.677L421.072 16.6838L421.076 16.6905L423.582 15.04ZM423.069 43.456L420.716 41.5961L420.708 41.6051L420.701 41.6142L423.069 43.456ZM405.854 35.328L403.596 37.3035L403.662 37.3787L403.732 37.4493L405.854 35.328ZM408.478 35.328L406.484 33.0858L406.419 33.1443L406.356 33.2067L408.478 35.328ZM408.478 27.328L406.235 29.3211L406.353 29.453L406.484 29.5702L408.478 27.328ZM405.918 27.328L408.039 29.4493L408.101 29.387L408.16 29.3211L405.918 27.328ZM411.549 45.64C409.597 45.64 408.587 45.2603 408.109 44.9188L404.622 49.8012C406.533 51.1663 408.979 51.64 411.549 51.64V45.64ZM403.366 47.36V53.952H409.366V47.36H403.366ZM406.366 50.952H387.293V56.952H406.366V50.952ZM390.293 53.952V10.176H384.293V53.952H390.293ZM387.293 13.176H403.358V7.176H387.293V13.176ZM400.385 10.5832L401.025 15.2552L406.97 14.4408L406.33 9.76884L400.385 10.5832ZM406.838 15.8127C407.253 14.5914 408.149 13.6073 410.08 12.9534L408.155 7.27057C404.795 8.40867 402.278 10.5819 401.157 13.8833L406.838 15.8127ZM410.099 12.947C410.846 12.6884 411.745 12.536 412.829 12.536V6.536C411.184 6.536 409.608 6.76759 408.136 7.27704L410.099 12.947ZM412.829 12.536C416.704 12.536 419.289 13.9462 421.068 16.677L426.095 13.403C423.095 8.79515 418.513 6.536 412.829 6.536V12.536ZM421.076 16.6905C423.045 19.6783 424.165 23.8238 424.165 29.376H430.165C430.165 23.0668 428.897 17.6551 426.087 13.3895L421.076 16.6905ZM424.165 29.376C424.165 34.8646 422.903 38.8274 420.716 41.5961L425.423 45.3159C428.697 41.1726 430.165 35.7487 430.165 29.376H424.165ZM420.701 41.6142C418.666 44.2306 415.763 45.64 411.549 45.64V51.64C417.32 51.64 422.097 49.5934 425.438 45.2978L420.701 41.6142ZM402.405 28.608V33.984H408.405V28.608H402.405ZM402.405 33.984C402.405 35.0964 402.718 36.3003 403.596 37.3035L408.111 33.3525C408.235 33.494 408.318 33.6492 408.364 33.7873C408.407 33.9173 408.405 33.9938 408.405 33.984H402.405ZM403.732 37.4493C404.673 38.39 405.879 38.84 407.134 38.84V32.84C407.216 32.84 407.364 32.8549 407.544 32.9266C407.726 32.9997 407.873 33.1048 407.975 33.2067L403.732 37.4493ZM407.134 38.84C408.355 38.84 409.61 38.4381 410.599 37.4493L406.356 33.2067C406.482 33.0804 406.643 32.9749 406.818 32.9085C406.984 32.8452 407.102 32.84 407.134 32.84V38.84ZM410.471 37.5702C411.55 36.6105 412.053 35.3188 412.053 33.984H406.053C406.053 33.9109 406.067 33.7518 406.152 33.5542C406.239 33.351 406.365 33.1919 406.484 33.0858L410.471 37.5702ZM412.053 33.984V28.608H406.053V33.984H412.053ZM412.053 28.608C412.053 27.2357 411.493 25.9941 410.471 25.0858L406.484 29.5702C406.392 29.4878 406.268 29.3438 406.174 29.1351C406.08 28.9261 406.053 28.736 406.053 28.608H412.053ZM410.72 25.3349C409.811 24.313 408.57 23.752 407.198 23.752V29.752C407.069 29.752 406.879 29.7258 406.67 29.6318C406.462 29.5378 406.318 29.4139 406.235 29.3211L410.72 25.3349ZM407.198 23.752C405.825 23.752 404.584 24.313 403.675 25.3349L408.16 29.3211C408.077 29.4139 407.933 29.5378 407.725 29.6318C407.516 29.7258 407.326 29.752 407.198 29.752V23.752ZM403.796 25.2067C402.855 26.1474 402.405 27.3539 402.405 28.608H408.405C408.405 28.6902 408.391 28.8389 408.319 29.0182C408.246 29.201 408.141 29.3475 408.039 29.4493L403.796 25.2067Z" fill="#FDE6AC"/>
</g>
<defs>
<filter id="filter0_d_71_574" x="0.895996" y="0.320007" width="430.27" height="61.632" filterUnits="userSpaceOnUse" color-interpolation-filters="sRGB">
<feFlood flood-opacity="0" result="BackgroundImageFix"/>
<feColorMatrix in="SourceAlpha" type="matrix" values="0 0 0 0 0 0 0 0 0 0 0 0 0 0 0 0 0 0 127 0" result="hardAlpha"/>
<feOffset dy="4"/>
<feGaussianBlur stdDeviation="2"/>
<feComposite in2="hardAlpha" operator="out"/>
<feColorMatrix type="matrix" values="0 0 0 0 0 0 0 0 0 0 0 0 0 0 0 0 0 0 0.25 0"/>
<feBlend mode="normal" in2="BackgroundImageFix" result="effect1_dropShadow_71_574"/>
<feBlend mode="normal" in="SourceGraphic" in2="effect1_dropShadow_71_574" result="shape"/>
</filter>
</defs>
</svg>
